<svg width="24" height="24" viewBox="0 0 24 24" fill="none" xmlns="http://www.w3.org/2000/svg">
<g clip-path="url(#clip0_205_18)">
<path d="M6.306 8.711C3.704 9.434 2 10.637 2 12C2 14.21 6.477 16 12 16C12.773 16 13.526 15.965 14.248 15.898" stroke="white" stroke-width="2" stroke-linecap="round" stroke-linejoin="round"/>
<path d="M17.692 15.289C20.295 14.567 22 13.363 22 12C22 9.79 17.523 8 12 8C11.227 8 10.474 8.035 9.75 8.102" stroke="white" stroke-width="2" stroke-linecap="round" stroke-linejoin="round"/>
<path d="M6.30499 15.287C5.62899 17.902 5.81999 19.98 6.99999 20.66C8.91299 21.765 12.703 18.783 15.464 14C15.851 13.33 16.197 12.661 16.5 12" stroke="white" stroke-width="2" stroke-linecap="round" stroke-linejoin="round"/>
<path d="M17.694 8.716C18.371 6.1 18.181 4.02 17 3.34C15.087 2.235 11.297 5.217 8.53602 10C8.14902 10.67 7.80302 11.34 7.49902 12" stroke="white" stroke-width="2" stroke-linecap="round" stroke-linejoin="round"/>
<path d="M12 5.42401C10.075 3.53201 8.17998 2.65801 6.99998 3.34001C5.08698 4.44401 5.77399 9.21701 8.53599 14C8.92199 14.67 9.32899 15.304 9.74799 15.896" stroke="white" stroke-width="2" stroke-linecap="round" stroke-linejoin="round"/>
<path d="M12 18.574C13.926 20.467 15.821 21.342 17 20.66C18.913 19.556 18.226 14.783 15.464 10C15.089 9.35 14.684 8.717 14.252 8.103" stroke="white" stroke-width="2" stroke-linecap="round" stroke-linejoin="round"/>
<path d="M11.5 12.866C11.6138 12.9327 11.7396 12.9762 11.8703 12.9941C12.0009 13.012 12.1338 13.0038 12.2613 12.9701C12.3888 12.9364 12.5084 12.8778 12.6132 12.7977C12.7179 12.7176 12.8058 12.6175 12.8718 12.5033C12.9377 12.3891 12.9804 12.263 12.9974 12.1322C13.0144 12.0014 13.0054 11.8686 12.9708 11.7413C12.9363 11.614 12.8769 11.4949 12.7961 11.3906C12.7153 11.2864 12.6146 11.1992 12.5 11.134C12.2704 11.0035 11.9986 10.9691 11.7437 11.0382C11.4889 11.1074 11.2718 11.2746 11.1397 11.5033C11.0077 11.732 10.9715 12.0036 11.039 12.2589C11.1065 12.5142 11.2722 12.7324 11.5 12.866Z" stroke="white" stroke-width="2" stroke-linecap="round" stroke-linejoin="round"/>
</g>
<defs>
<clipPath id="clip0_205_18">
<rect width="24" height="24" fill="white"/>
</clipPath>
</defs>
</svg>
