<svg width="20" height="22" viewBox="0 0 20 22" fill="none" xmlns="http://www.w3.org/2000/svg">
<path d="M9.99561 1C9.72186 1 9.44816 1.06887 9.21191 1.20733L1.7793 5.60787C1.2993 5.89249 1 6.43137 1 7.0006V14.9844C1 15.5613 1.2993 16.0925 1.7793 16.3771L3.73047 17.5309C4.67547 18.0079 5.01244 18.0072 5.43994 18.0072C6.84244 18.0072 7.64453 17.1381 7.64453 15.6304V7.39273C7.64453 7.26965 7.54773 7.16887 7.42773 7.16887H6.49023C6.36273 7.16887 6.27197 7.26965 6.27197 7.39273V15.6229C6.27197 16.2998 5.59029 16.9612 4.48779 16.3996L2.44727 15.1917C2.37227 15.1532 2.32715 15.069 2.32715 14.9844V7.00811C2.32715 6.91581 2.37227 6.83792 2.44727 6.79177L9.87988 2.39273C9.94738 2.34657 10.0378 2.34657 10.1128 2.39273L17.5454 6.79177C17.6204 6.83792 17.6655 6.91599 17.6655 7.0006V14.9844C17.6655 15.069 17.6202 15.1532 17.5527 15.1917L10.1128 19.5998C10.0453 19.6382 9.94738 19.6382 9.87988 19.5998L7.9668 18.4384C7.9143 18.3999 7.84059 18.3926 7.78809 18.4234C7.25559 18.7311 7.15809 18.7693 6.66309 18.9462C6.54309 18.9847 6.35547 19.0614 6.73047 19.2767L9.21191 20.7852C9.45191 20.9236 9.72268 21 9.99268 21C10.2702 21 10.5393 20.9236 10.7793 20.7852L18.2207 16.3771C18.7007 16.0925 19 15.5613 19 14.9844V7.00811C19 6.43119 18.7007 5.9 18.2207 5.61538L10.7793 1.20733C10.543 1.06887 10.2694 1 9.99561 1ZM11.9951 7.15835C9.87262 7.15835 8.60547 8.08083 8.60547 9.61929C8.60547 11.2885 9.8643 11.7493 11.9043 11.957C14.3418 12.2032 14.5293 12.5735 14.5293 13.0658C14.5293 13.912 13.8629 14.2737 12.2954 14.2737C10.3229 14.2737 9.88762 13.7653 9.74512 12.7653C9.73012 12.6576 9.64064 12.5805 9.53564 12.5805H8.56738C8.44738 12.5805 8.35791 12.6815 8.35791 12.7969C8.35791 14.0815 9.04041 15.6109 12.2954 15.6109C14.6504 15.6109 16 14.6582 16 12.9967C16 11.3505 14.9123 10.9112 12.6323 10.5959C10.3148 10.2882 10.082 10.1266 10.082 9.57272C10.082 9.11118 10.2851 8.50451 11.9951 8.50451C13.5176 8.50451 14.0873 8.84189 14.3198 9.89573C14.3423 9.99573 14.4243 10.073 14.5293 10.073H15.4976C15.5576 10.073 15.6093 10.0425 15.6543 9.99639C15.6918 9.95793 15.7145 9.89585 15.707 9.82662C15.557 8.01124 14.3801 7.15835 11.9951 7.15835Z" fill="white"/>
</svg>
