<svg width="62" height="62" viewBox="0 0 62 62" fill="none" xmlns="http://www.w3.org/2000/svg">
<path d="M31 62C48.1208 62 62 48.1208 62 31C62 13.8792 48.1208 0 31 0C13.8792 0 0 13.8792 0 31C0 48.1208 13.8792 62 31 62Z" fill="white"/>
<path d="M31 15.0178C36.1896 15.0178 36.8326 15.0178 38.8993 15.1097C40.7822 15.2015 41.8385 15.523 42.5274 15.7985C43.4459 16.166 44.0889 16.5793 44.7778 17.2682C45.4667 17.9571 45.88 18.6 46.2474 19.5185C46.523 20.2074 46.8444 21.2178 46.9363 23.1467C47.0281 25.2134 47.0281 25.8104 47.0281 31.0459C47.0281 36.2815 47.0281 36.8785 46.9363 38.9452C46.8444 40.8282 46.523 41.8845 46.2474 42.5734C45.88 43.4919 45.4667 44.1348 44.7778 44.8237C44.0889 45.5126 43.4459 45.926 42.5274 46.2934C41.8385 46.5689 40.8281 46.8904 38.8993 46.9823C36.8326 47.0741 36.2355 47.0741 31 47.0741C25.8104 47.0741 25.1674 47.0741 23.1007 46.9823C21.2178 46.8904 20.1615 46.5689 19.4726 46.2934C18.5541 45.926 17.9111 45.5126 17.2222 44.8237C16.5333 44.1348 16.12 43.4919 15.7526 42.5734C15.477 41.8845 15.1555 40.8741 15.0637 38.9452C14.9718 36.8785 14.9718 36.2815 14.9718 31.0459C14.9718 25.8104 14.9718 25.2134 15.0637 23.1467C15.1555 21.2637 15.477 20.2074 15.7526 19.5185C16.12 18.6 16.5333 17.9571 17.2222 17.2682C17.9111 16.5793 18.5541 16.166 19.4726 15.7985C20.1615 15.523 21.1718 15.2015 23.1007 15.1097C25.1674 15.0178 25.8104 15.0178 31 15.0178ZM31 11.4815C25.7185 11.4815 25.0296 11.4815 22.963 11.6193C20.8963 11.7111 19.4726 12.0326 18.2326 12.5378C16.9467 13.043 15.8444 13.686 14.7881 14.7882C13.6859 15.8904 13.043 16.9467 12.5378 18.2326C12.0326 19.4726 11.7111 20.8963 11.6193 22.963C11.4815 25.0297 11.4815 25.7185 11.4815 31C11.4815 36.2815 11.4815 36.9704 11.6193 39.0371C11.7111 41.1037 12.0326 42.5274 12.5378 43.7674C13.043 45.0534 13.6859 46.1556 14.7881 47.2119C15.8904 48.3141 16.9467 48.9571 18.2326 49.4622C19.4726 49.9674 20.8963 50.2889 22.963 50.3808C25.0296 50.4726 25.7185 50.5185 31 50.5185C36.2815 50.5185 36.9704 50.5185 39.037 50.3808C41.1037 50.2889 42.5274 49.9674 43.7674 49.4622C45.0533 48.9571 46.1556 48.3141 47.2118 47.2119C48.3141 46.1097 48.957 45.0534 49.4622 43.7674C49.9674 42.5274 50.2889 41.1037 50.3807 39.0371C50.4726 36.9704 50.5185 36.2815 50.5185 31C50.5185 25.7185 50.5185 25.0297 50.3807 22.963C50.2889 20.8963 49.9674 19.4726 49.4622 18.2326C48.957 16.9467 48.3141 15.8445 47.2118 14.7882C46.1096 13.686 45.0533 13.043 43.7674 12.5378C42.5274 12.0326 41.1037 11.7111 39.037 11.6193C36.9704 11.4815 36.2815 11.4815 31 11.4815Z" fill="#010201"/>
<path d="M31 20.9882C25.443 20.9882 20.9882 25.4889 20.9882 31C20.9882 36.5111 25.4889 41.0119 31 41.0119C36.557 41.0119 41.0119 36.5111 41.0119 31C41.0119 25.4889 36.557 20.9882 31 20.9882ZM31 37.5215C27.4178 37.5215 24.4785 34.6282 24.4785 31C24.4785 27.3719 27.3719 24.4785 31 24.4785C34.6282 24.4785 37.5215 27.3719 37.5215 31C37.5215 34.6282 34.5822 37.5215 31 37.5215Z" fill="#010201"/>
<path d="M41.4252 22.917C42.7188 22.917 43.7674 21.8684 43.7674 20.5748C43.7674 19.2812 42.7188 18.2326 41.4252 18.2326C40.1316 18.2326 39.083 19.2812 39.083 20.5748C39.083 21.8684 40.1316 22.917 41.4252 22.917Z" fill="#010201"/>
</svg>
