<svg width="62" height="62" viewBox="0 0 62 62" fill="none" xmlns="http://www.w3.org/2000/svg">
<g clip-path="url(#clip0_72_3)">
<path d="M31 62C48.1208 62 62 48.1208 62 31C62 13.8792 48.1208 0 31 0C13.8792 0 0 13.8792 0 31C0 48.1208 13.8792 62 31 62Z" fill="white"/>
<path d="M33.3881 26.7748C33.8933 26.2237 34.3067 25.6267 34.8578 25.1215C36.4652 23.6059 38.3481 22.8252 40.5985 22.8711C41.8385 22.8711 43.0326 22.963 44.1807 23.3304C46.8904 24.1111 48.4519 25.9481 49.1867 28.6119C49.7378 30.5867 49.8296 32.6074 49.8756 34.6282C49.8756 38.8993 49.8756 43.1704 49.8756 47.4874C49.8756 47.9007 49.7837 47.9926 49.3704 47.9926C47.1659 47.9926 44.9615 47.9926 42.757 47.9926C42.3896 47.9926 42.2978 47.8548 42.2978 47.4874C42.2978 43.4 42.2978 39.3585 42.2978 35.2711C42.2978 34.2607 42.2519 33.2504 41.9304 32.24C41.4252 30.403 40.0933 29.4844 38.1644 29.5763C35.5467 29.7141 34.1689 31 33.8474 33.6637C33.7556 34.3067 33.7096 34.9496 33.7096 35.5926C33.7096 39.5422 33.7096 43.5378 33.7096 47.4874C33.7096 47.9007 33.6178 47.9926 33.2044 47.9926C31 47.9926 28.7496 47.9926 26.5452 47.9926C26.1778 47.9926 26.0859 47.9007 26.0859 47.5333C26.0859 39.68 26.0859 31.8267 26.0859 23.9733C26.0859 23.6059 26.2237 23.5141 26.5911 23.5141C28.7037 23.5141 30.8163 23.5141 32.9289 23.5141C33.2963 23.5141 33.4341 23.6519 33.3881 24.0193C33.3881 24.8919 33.3881 25.8104 33.3881 26.7748Z" fill="#010201"/>
<path d="M21.3096 35.7304C21.3096 39.6341 21.3096 43.4919 21.3096 47.3956C21.3096 47.8089 21.2178 47.9467 20.7585 47.9467C18.5541 47.9007 16.3496 47.9467 14.1452 47.9467C13.7778 47.9467 13.6859 47.8548 13.6859 47.4874C13.6859 39.6341 13.6859 31.7807 13.6859 23.9274C13.6859 23.6059 13.7778 23.4681 14.0993 23.4681C16.3496 23.4681 18.5541 23.4681 20.8044 23.4681C21.2178 23.4681 21.3096 23.6519 21.3096 24.0193C21.3096 27.923 21.3096 31.8267 21.3096 35.7304Z" fill="#010201"/>
<path d="M21.9067 15.6607C21.9067 18.0948 19.9319 20.0696 17.4978 20.0696C15.1096 20.0696 13.0889 18.0948 13.0889 15.7067C13.0889 13.2726 15.0637 11.2978 17.4978 11.2978C19.9319 11.2978 21.9067 13.2726 21.9067 15.6607Z" fill="#010201"/>
</g>
<defs>
<clipPath id="clip0_72_3">
<rect width="62" height="62" fill="white"/>
</clipPath>
</defs>
</svg>
